# ProBuilder 4.4.0
# https://unity3d.com/unity/features/worldbuilding/probuilder
# 2/2/2021 12:09:50 PM

mtllib ./DimmerBase.mtl
o DimmerBase

g Cylinder
v -1 -0.04999995 0
v -1 4.842877E-08 0
v -0.9921147 -0.04999995 0.1253332
v -0.9921147 4.842877E-08 0.1253332
v -0.9685832 -0.04999995 0.2486899
v -0.9685832 4.842877E-08 0.2486899
v -0.9297765 -0.04999995 0.3681245
v -0.9297765 4.842877E-08 0.3681245
v -0.8763067 -0.04999995 0.4817536
v -0.8763067 4.842877E-08 0.4817536
v -0.809017 -0.04999995 0.5877852
v -0.809017 4.842877E-08 0.5877852
v -0.7289687 -0.04999995 0.6845471
v -0.7289687 4.842877E-08 0.6845471
v -0.6374241 -0.04999995 0.7705132
v -0.6374241 4.842877E-08 0.7705132
v -0.5358269 -0.04999995 0.8443279
v -0.5358269 4.842877E-08 0.8443279
v -0.4257793 -0.04999995 0.9048271
v -0.4257793 4.842877E-08 0.9048271
v -0.3090171 -0.04999995 0.9510565
v -0.3090171 4.842877E-08 0.9510565
v -0.1873813 -0.04999995 0.9822872
v -0.1873813 4.842877E-08 0.9822872
v -0.06279063 -0.04999995 0.9980267
v -0.06279063 4.842877E-08 0.9980267
v 0.06279051 -0.04999995 0.9980267
v 0.06279051 4.842877E-08 0.9980267
v 0.1873811 -0.04999995 0.9822873
v 0.1873811 4.842877E-08 0.9822873
v 0.3090169 -0.04999995 0.9510565
v 0.3090169 4.842877E-08 0.9510565
v 0.4257791 -0.04999995 0.9048271
v 0.4257791 4.842877E-08 0.9048271
v 0.5358267 -0.04999995 0.844328
v 0.5358267 4.842877E-08 0.844328
v 0.637424 -0.04999995 0.7705132
v 0.637424 4.842877E-08 0.7705132
v 0.7289686 -0.04999995 0.6845471
v 0.7289686 4.842877E-08 0.6845471
v 0.8090169 -0.04999995 0.5877854
v 0.8090169 4.842877E-08 0.5877854
v 0.8763067 -0.04999995 0.4817538
v 0.8763067 4.842877E-08 0.4817538
v 0.9297764 -0.04999995 0.3681246
v 0.9297764 4.842877E-08 0.3681246
v 0.9685831 -0.04999995 0.2486899
v 0.9685831 4.842877E-08 0.2486899
v 0.9921147 -0.04999995 0.1253334
v 0.9921147 4.842877E-08 0.1253334
v 1 -0.04999995 1.509958E-07
v 1 4.842877E-08 1.509958E-07
v 0.9921148 -0.04999995 -0.1253331
v 0.9921148 4.842877E-08 -0.1253331
v 0.9685831 -0.04999995 -0.2486898
v 0.9685831 4.842877E-08 -0.2486898
v 0.9297765 -0.04999995 -0.3681243
v 0.9297765 4.842877E-08 -0.3681243
v 0.8763068 -0.04999995 -0.4817535
v 0.8763068 4.842877E-08 -0.4817535
v 0.8090171 -0.04999995 -0.5877851
v 0.8090171 4.842877E-08 -0.5877851
v 0.7289686 -0.04999995 -0.6845471
v 0.7289686 4.842877E-08 -0.6845471
v 0.6374242 -0.04999995 -0.7705131
v 0.6374242 4.842877E-08 -0.7705131
v 0.5358269 -0.04999995 -0.8443278
v 0.5358269 4.842877E-08 -0.8443278
v 0.4257795 -0.04999995 -0.904827
v 0.4257795 4.842877E-08 -0.904827
v 0.3090171 -0.04999995 -0.9510565
v 0.3090171 4.842877E-08 -0.9510565
v 0.1873814 -0.04999995 -0.9822872
v 0.1873814 4.842877E-08 -0.9822872
v 0.06279051 -0.04999995 -0.9980267
v 0.06279051 4.842877E-08 -0.9980267
v -0.06279057 -0.04999995 -0.9980267
v -0.06279057 4.842877E-08 -0.9980267
v -0.1873809 -0.04999995 -0.9822873
v -0.1873809 4.842877E-08 -0.9822873
v -0.3090167 -0.04999995 -0.9510566
v -0.3090167 4.842877E-08 -0.9510566
v -0.425779 -0.04999995 -0.9048272
v -0.425779 4.842877E-08 -0.9048272
v -0.5358266 -0.04999995 -0.844328
v -0.5358266 4.842877E-08 -0.844328
v -0.6374239 -0.04999995 -0.7705134
v -0.6374239 4.842877E-08 -0.7705134
v -0.7289686 -0.04999995 -0.6845472
v -0.7289686 4.842877E-08 -0.6845472
v -0.8090169 -0.04999995 -0.5877853
v -0.8090169 4.842877E-08 -0.5877853
v -0.8763067 -0.04999995 -0.4817537
v -0.8763067 4.842877E-08 -0.4817537
v -0.9297765 -0.04999995 -0.3681245
v -0.9297765 4.842877E-08 -0.3681245
v -0.968583 -0.04999995 -0.2486903
v -0.968583 4.842877E-08 -0.2486903
v -0.9921147 -0.04999995 -0.1253336
v -0.9921147 4.842877E-08 -0.1253336
v -1 0.05000005 0
v -0.9921147 0.05000005 0.1253332
v -0.9685832 0.05000005 0.2486899
v -0.9297765 0.05000005 0.3681245
v -0.8763067 0.05000005 0.4817536
v -0.809017 0.05000005 0.5877852
v -0.7289687 0.05000005 0.6845471
v -0.6374241 0.05000005 0.7705132
v -0.5358269 0.05000005 0.8443279
v -0.4257793 0.05000005 0.9048271
v -0.3090171 0.05000005 0.9510565
v -0.1873813 0.05000005 0.9822872
v -0.06279063 0.05000005 0.9980267
v 0.06279051 0.05000005 0.9980267
v 0.1873811 0.05000005 0.9822873
v 0.3090169 0.05000005 0.9510565
v 0.4257791 0.05000005 0.9048271
v 0.5358267 0.05000005 0.844328
v 0.637424 0.05000005 0.7705132
v 0.7289686 0.05000005 0.6845471
v 0.8090169 0.05000005 0.5877854
v 0.8763067 0.05000005 0.4817538
v 0.9297764 0.05000005 0.3681246
v 0.9685831 0.05000005 0.2486899
v 0.9921147 0.05000005 0.1253334
v 1 0.05000005 1.509958E-07
v 0.9921148 0.05000005 -0.1253331
v 0.9685831 0.05000005 -0.2486898
v 0.9297765 0.05000005 -0.3681243
v 0.8763068 0.05000005 -0.4817535
v 0.8090171 0.05000005 -0.5877851
v 0.7289686 0.05000005 -0.6845471
v 0.6374242 0.05000005 -0.7705131
v 0.5358269 0.05000005 -0.8443278
v 0.4257795 0.05000005 -0.904827
v 0.3090171 0.05000005 -0.9510565
v 0.1873814 0.05000005 -0.9822872
v 0.06279051 0.05000005 -0.9980267
v -0.06279057 0.05000005 -0.9980267
v -0.1873809 0.05000005 -0.9822873
v -0.3090167 0.05000005 -0.9510566
v -0.425779 0.05000005 -0.9048272
v -0.5358266 0.05000005 -0.844328
v -0.6374239 0.05000005 -0.7705134
v -0.7289686 0.05000005 -0.6845472
v -0.8090169 0.05000005 -0.5877853
v -0.8763067 0.05000005 -0.4817537
v -0.9297765 0.05000005 -0.3681245
v -0.968583 0.05000005 -0.2486903
v -0.9921147 0.05000005 -0.1253336
v 0 -0.04999995 0
v 0 0.05000005 0

vt -0.06279036 -0.04999995
vt -0.06279036 4.842877E-08
vt 0.06279067 -0.04999995
vt 0.06279067 4.842877E-08
vt -0.06279036 0.05000005
vt 0.06279067 0.05000005
vt -1 0
vt 0 0
vt -0.9921147 0.1253332
vt 1 0
vt 0.9921147 0.1253332
vt -0.9685832 0.2486899
vt 0.9685832 0.2486899
vt -0.9297765 0.3681245
vt 0.9297765 0.3681245
vt -0.8763067 0.4817536
vt 0.8763067 0.4817536
vt -0.809017 0.5877852
vt 0.809017 0.5877852
vt -0.7289687 0.6845471
vt 0.7289687 0.6845471
vt -0.6374241 0.7705132
vt 0.6374241 0.7705132
vt -0.5358269 0.8443279
vt 0.5358269 0.8443279
vt -0.4257793 0.9048271
vt 0.4257793 0.9048271
vt -0.3090171 0.9510565
vt 0.3090171 0.9510565
vt -0.1873813 0.9822872
vt 0.1873813 0.9822872
vt -0.06279063 0.9980267
vt 0.06279063 0.9980267
vt 0.9921148 -0.1253331
vt -0.9921148 -0.1253331
vt 0.9685831 -0.2486898
vt -0.9685831 -0.2486898
vt 0.9297765 -0.3681243
vt -0.9297765 -0.3681243
vt 0.8763068 -0.4817535
vt -0.8763068 -0.4817535
vt 0.8090171 -0.5877851
vt -0.8090171 -0.5877851
vt 0.7289686 -0.6845471
vt -0.7289686 -0.6845471
vt 0.6374242 -0.7705131
vt -0.6374242 -0.7705131
vt 0.5358269 -0.8443278
vt -0.5358269 -0.8443278
vt 0.4257795 -0.904827
vt -0.4257795 -0.904827
vt 0.3090171 -0.9510565
vt -0.3090171 -0.9510565
vt 0.1873814 -0.9822872
vt -0.1873814 -0.9822872
vt 0.06279051 -0.9980267
vt -0.06279051 -0.9980267

vn -1 0 -1.455736E-07
vn -0.9921147 0 0.1253332
vn -0.9685832 0 0.24869
vn -0.9297765 0 0.3681245
vn -0.8763067 0 0.4817536
vn -0.809017 0 0.5877852
vn -0.7289686 0 0.6845471
vn -0.637424 0 0.7705133
vn -0.535827 0 0.8443278
vn -0.4257793 0 0.904827
vn -0.3090169 0 0.9510566
vn -0.1873814 0 0.9822872
vn -0.06279066 0 0.9980267
vn 0.06279045 0 0.9980267
vn 0.1873812 0 0.9822873
vn 0.309017 0 0.9510565
vn 0.4257792 0 0.9048271
vn 0.5358267 0 0.844328
vn 0.6374241 0 0.7705132
vn 0.7289686 0 0.6845472
vn 0.8090168 0 0.5877854
vn 0.8763068 0 0.4817536
vn 0.9297765 0 0.3681244
vn 0.9685831 0 0.2486901
vn 0.9921147 0 0.1253336
vn 1 0 4.703146E-07
vn 0.9921147 0 -0.1253334
vn 0.9685831 0 -0.2486901
vn 0.9297766 0 -0.3681242
vn 0.8763068 0 -0.4817535
vn 0.809017 0 -0.5877852
vn 0.7289688 0 -0.6845469
vn 0.6374242 0 -0.7705131
vn 0.535827 0 -0.8443277
vn 0.4257795 0 -0.9048269
vn 0.309017 0 -0.9510565
vn 0.1873814 0 -0.9822872
vn 0.06279057 0 -0.9980267
vn -0.06279036 0 -0.9980267
vn -0.1873811 0 -0.9822873
vn -0.3090167 0 -0.9510566
vn -0.425779 0 -0.9048272
vn -0.5358266 0 -0.844328
vn -0.6374239 0 -0.7705134
vn -0.7289686 0 -0.6845471
vn -0.809017 0 -0.5877853
vn -0.8763067 0 -0.4817537
vn -0.9297764 0 -0.3681246
vn -0.9685831 0 -0.2486902
vn -0.9921147 0 -0.1253335
vn 0 -1 0
vn 0 1 0

usemtl Lit
f 1/7/51 151/8/51 3/9/51
f 3/9/51 151/8/51 5/12/51
f 5/12/51 151/8/51 7/14/51
f 7/14/51 151/8/51 9/16/51
f 9/16/51 151/8/51 11/18/51
f 11/18/51 151/8/51 13/20/51
f 13/20/51 151/8/51 15/22/51
f 15/22/51 151/8/51 17/24/51
f 17/24/51 151/8/51 19/26/51
f 19/26/51 151/8/51 21/28/51
f 21/28/51 151/8/51 23/30/51
f 23/30/51 151/8/51 25/32/51
f 25/32/51 151/8/51 27/33/51
f 27/33/51 151/8/51 29/31/51
f 29/31/51 151/8/51 31/29/51
f 31/29/51 151/8/51 33/27/51
f 33/27/51 151/8/51 35/25/51
f 35/25/51 151/8/51 37/23/51
f 37/23/51 151/8/51 39/21/51
f 39/21/51 151/8/51 41/19/51
f 41/19/51 151/8/51 43/17/51
f 43/17/51 151/8/51 45/15/51
f 45/15/51 151/8/51 47/13/51
f 47/13/51 151/8/51 49/11/51
f 49/11/51 151/8/51 51/10/51
f 51/10/51 151/8/51 53/34/51
f 53/34/51 151/8/51 55/36/51
f 55/36/51 151/8/51 57/38/51
f 57/38/51 151/8/51 59/40/51
f 59/40/51 151/8/51 61/42/51
f 61/42/51 151/8/51 63/44/51
f 63/44/51 151/8/51 65/46/51
f 65/46/51 151/8/51 67/48/51
f 67/48/51 151/8/51 69/50/51
f 69/50/51 151/8/51 71/52/51
f 71/52/51 151/8/51 73/54/51
f 73/54/51 151/8/51 75/56/51
f 75/56/51 151/8/51 77/57/51
f 77/57/51 151/8/51 79/55/51
f 79/55/51 151/8/51 81/53/51
f 81/53/51 151/8/51 83/51/51
f 83/51/51 151/8/51 85/49/51
f 85/49/51 151/8/51 87/47/51
f 87/47/51 151/8/51 89/45/51
f 89/45/51 151/8/51 91/43/51
f 91/43/51 151/8/51 93/41/51
f 93/41/51 151/8/51 95/39/51
f 95/39/51 151/8/51 97/37/51
f 97/37/51 151/8/51 99/35/51
f 99/35/51 151/8/51 1/7/51
f 102/11/52 152/8/52 101/10/52
f 103/13/52 152/8/52 102/11/52
f 104/15/52 152/8/52 103/13/52
f 105/17/52 152/8/52 104/15/52
f 106/19/52 152/8/52 105/17/52
f 107/21/52 152/8/52 106/19/52
f 108/23/52 152/8/52 107/21/52
f 109/25/52 152/8/52 108/23/52
f 110/27/52 152/8/52 109/25/52
f 111/29/52 152/8/52 110/27/52
f 112/31/52 152/8/52 111/29/52
f 113/33/52 152/8/52 112/31/52
f 114/32/52 152/8/52 113/33/52
f 115/30/52 152/8/52 114/32/52
f 116/28/52 152/8/52 115/30/52
f 117/26/52 152/8/52 116/28/52
f 118/24/52 152/8/52 117/26/52
f 119/22/52 152/8/52 118/24/52
f 120/20/52 152/8/52 119/22/52
f 121/18/52 152/8/52 120/20/52
f 122/16/52 152/8/52 121/18/52
f 123/14/52 152/8/52 122/16/52
f 124/12/52 152/8/52 123/14/52
f 125/9/52 152/8/52 124/12/52
f 126/7/52 152/8/52 125/9/52
f 127/35/52 152/8/52 126/7/52
f 128/37/52 152/8/52 127/35/52
f 129/39/52 152/8/52 128/37/52
f 130/41/52 152/8/52 129/39/52
f 131/43/52 152/8/52 130/41/52
f 132/45/52 152/8/52 131/43/52
f 133/47/52 152/8/52 132/45/52
f 134/49/52 152/8/52 133/47/52
f 135/51/52 152/8/52 134/49/52
f 136/53/52 152/8/52 135/51/52
f 137/55/52 152/8/52 136/53/52
f 138/57/52 152/8/52 137/55/52
f 139/56/52 152/8/52 138/57/52
f 140/54/52 152/8/52 139/56/52
f 141/52/52 152/8/52 140/54/52
f 142/50/52 152/8/52 141/52/52
f 143/48/52 152/8/52 142/50/52
f 144/46/52 152/8/52 143/48/52
f 145/44/52 152/8/52 144/46/52
f 146/42/52 152/8/52 145/44/52
f 147/40/52 152/8/52 146/42/52
f 148/38/52 152/8/52 147/40/52
f 149/36/52 152/8/52 148/38/52
f 150/34/52 152/8/52 149/36/52
f 101/10/52 152/8/52 150/34/52
f 4/4/2 2/2/1 1/1/1
f 1/1/1 3/3/2 4/4/2
f 6/4/3 4/2/2 3/1/2
f 3/1/2 5/3/3 6/4/3
f 8/4/4 6/2/3 5/1/3
f 5/1/3 7/3/4 8/4/4
f 10/4/5 8/2/4 7/1/4
f 7/1/4 9/3/5 10/4/5
f 12/4/6 10/2/5 9/1/5
f 9/1/5 11/3/6 12/4/6
f 14/4/7 12/2/6 11/1/6
f 11/1/6 13/3/7 14/4/7
f 16/4/8 14/2/7 13/1/7
f 13/1/7 15/3/8 16/4/8
f 18/4/9 16/2/8 15/1/8
f 15/1/8 17/3/9 18/4/9
f 20/4/10 18/2/9 17/1/9
f 17/1/9 19/3/10 20/4/10
f 22/4/11 20/2/10 19/1/10
f 19/1/10 21/3/11 22/4/11
f 24/4/12 22/2/11 21/1/11
f 21/1/11 23/3/12 24/4/12
f 26/4/13 24/2/12 23/1/12
f 23/1/12 25/3/13 26/4/13
f 28/4/14 26/2/13 25/1/13
f 25/1/13 27/3/14 28/4/14
f 30/4/15 28/2/14 27/1/14
f 27/1/14 29/3/15 30/4/15
f 32/4/16 30/2/15 29/1/15
f 29/1/15 31/3/16 32/4/16
f 34/4/17 32/2/16 31/1/16
f 31/1/16 33/3/17 34/4/17
f 36/4/18 34/2/17 33/1/17
f 33/1/17 35/3/18 36/4/18
f 38/4/19 36/2/18 35/1/18
f 35/1/18 37/3/19 38/4/19
f 40/4/20 38/2/19 37/1/19
f 37/1/19 39/3/20 40/4/20
f 42/4/21 40/2/20 39/1/20
f 39/1/20 41/3/21 42/4/21
f 44/4/22 42/2/21 41/1/21
f 41/1/21 43/3/22 44/4/22
f 46/4/23 44/2/22 43/1/22
f 43/1/22 45/3/23 46/4/23
f 48/4/24 46/2/23 45/1/23
f 45/1/23 47/3/24 48/4/24
f 50/4/25 48/2/24 47/1/24
f 47/1/24 49/3/25 50/4/25
f 52/4/26 50/2/25 49/1/25
f 49/1/25 51/3/26 52/4/26
f 54/4/27 52/2/26 51/1/26
f 51/1/26 53/3/27 54/4/27
f 56/4/28 54/2/27 53/1/27
f 53/1/27 55/3/28 56/4/28
f 58/4/29 56/2/28 55/1/28
f 55/1/28 57/3/29 58/4/29
f 60/4/30 58/2/29 57/1/29
f 57/1/29 59/3/30 60/4/30
f 62/4/31 60/2/30 59/1/30
f 59/1/30 61/3/31 62/4/31
f 64/4/32 62/2/31 61/1/31
f 61/1/31 63/3/32 64/4/32
f 66/4/33 64/2/32 63/1/32
f 63/1/32 65/3/33 66/4/33
f 68/4/34 66/2/33 65/1/33
f 65/1/33 67/3/34 68/4/34
f 70/4/35 68/2/34 67/1/34
f 67/1/34 69/3/35 70/4/35
f 72/4/36 70/2/35 69/1/35
f 69/1/35 71/3/36 72/4/36
f 74/4/37 72/2/36 71/1/36
f 71/1/36 73/3/37 74/4/37
f 76/4/38 74/2/37 73/1/37
f 73/1/37 75/3/38 76/4/38
f 78/4/39 76/2/38 75/1/38
f 75/1/38 77/3/39 78/4/39
f 80/4/40 78/2/39 77/1/39
f 77/1/39 79/3/40 80/4/40
f 82/4/41 80/2/40 79/1/40
f 79/1/40 81/3/41 82/4/41
f 84/4/42 82/2/41 81/1/41
f 81/1/41 83/3/42 84/4/42
f 86/4/43 84/2/42 83/1/42
f 83/1/42 85/3/43 86/4/43
f 88/4/44 86/2/43 85/1/43
f 85/1/43 87/3/44 88/4/44
f 90/4/45 88/2/44 87/1/44
f 87/1/44 89/3/45 90/4/45
f 92/4/46 90/2/45 89/1/45
f 89/1/45 91/3/46 92/4/46
f 94/4/47 92/2/46 91/1/46
f 91/1/46 93/3/47 94/4/47
f 96/4/48 94/2/47 93/1/47
f 93/1/47 95/3/48 96/4/48
f 98/4/49 96/2/48 95/1/48
f 95/1/48 97/3/49 98/4/49
f 100/4/50 98/2/49 97/1/49
f 97/1/49 99/3/50 100/4/50
f 2/4/1 100/2/50 99/1/50
f 99/1/50 1/3/1 2/4/1
f 102/6/2 101/5/1 2/2/1
f 2/2/1 4/4/2 102/6/2
f 103/6/3 102/5/2 4/2/2
f 4/2/2 6/4/3 103/6/3
f 104/6/4 103/5/3 6/2/3
f 6/2/3 8/4/4 104/6/4
f 105/6/5 104/5/4 8/2/4
f 8/2/4 10/4/5 105/6/5
f 106/6/6 105/5/5 10/2/5
f 10/2/5 12/4/6 106/6/6
f 107/6/7 106/5/6 12/2/6
f 12/2/6 14/4/7 107/6/7
f 108/6/8 107/5/7 14/2/7
f 14/2/7 16/4/8 108/6/8
f 109/6/9 108/5/8 16/2/8
f 16/2/8 18/4/9 109/6/9
f 110/6/10 109/5/9 18/2/9
f 18/2/9 20/4/10 110/6/10
f 111/6/11 110/5/10 20/2/10
f 20/2/10 22/4/11 111/6/11
f 112/6/12 111/5/11 22/2/11
f 22/2/11 24/4/12 112/6/12
f 113/6/13 112/5/12 24/2/12
f 24/2/12 26/4/13 113/6/13
f 114/6/14 113/5/13 26/2/13
f 26/2/13 28/4/14 114/6/14
f 115/6/15 114/5/14 28/2/14
f 28/2/14 30/4/15 115/6/15
f 116/6/16 115/5/15 30/2/15
f 30/2/15 32/4/16 116/6/16
f 117/6/17 116/5/16 32/2/16
f 32/2/16 34/4/17 117/6/17
f 118/6/18 117/5/17 34/2/17
f 34/2/17 36/4/18 118/6/18
f 119/6/19 118/5/18 36/2/18
f 36/2/18 38/4/19 119/6/19
f 120/6/20 119/5/19 38/2/19
f 38/2/19 40/4/20 120/6/20
f 121/6/21 120/5/20 40/2/20
f 40/2/20 42/4/21 121/6/21
f 122/6/22 121/5/21 42/2/21
f 42/2/21 44/4/22 122/6/22
f 123/6/23 122/5/22 44/2/22
f 44/2/22 46/4/23 123/6/23
f 124/6/24 123/5/23 46/2/23
f 46/2/23 48/4/24 124/6/24
f 125/6/25 124/5/24 48/2/24
f 48/2/24 50/4/25 125/6/25
f 126/6/26 125/5/25 50/2/25
f 50/2/25 52/4/26 126/6/26
f 127/6/27 126/5/26 52/2/26
f 52/2/26 54/4/27 127/6/27
f 128/6/28 127/5/27 54/2/27
f 54/2/27 56/4/28 128/6/28
f 129/6/29 128/5/28 56/2/28
f 56/2/28 58/4/29 129/6/29
f 130/6/30 129/5/29 58/2/29
f 58/2/29 60/4/30 130/6/30
f 131/6/31 130/5/30 60/2/30
f 60/2/30 62/4/31 131/6/31
f 132/6/32 131/5/31 62/2/31
f 62/2/31 64/4/32 132/6/32
f 133/6/33 132/5/32 64/2/32
f 64/2/32 66/4/33 133/6/33
f 134/6/34 133/5/33 66/2/33
f 66/2/33 68/4/34 134/6/34
f 135/6/35 134/5/34 68/2/34
f 68/2/34 70/4/35 135/6/35
f 136/6/36 135/5/35 70/2/35
f 70/2/35 72/4/36 136/6/36
f 137/6/37 136/5/36 72/2/36
f 72/2/36 74/4/37 137/6/37
f 138/6/38 137/5/37 74/2/37
f 74/2/37 76/4/38 138/6/38
f 139/6/39 138/5/38 76/2/38
f 76/2/38 78/4/39 139/6/39
f 140/6/40 139/5/39 78/2/39
f 78/2/39 80/4/40 140/6/40
f 141/6/41 140/5/40 80/2/40
f 80/2/40 82/4/41 141/6/41
f 142/6/42 141/5/41 82/2/41
f 82/2/41 84/4/42 142/6/42
f 143/6/43 142/5/42 84/2/42
f 84/2/42 86/4/43 143/6/43
f 144/6/44 143/5/43 86/2/43
f 86/2/43 88/4/44 144/6/44
f 145/6/45 144/5/44 88/2/44
f 88/2/44 90/4/45 145/6/45
f 146/6/46 145/5/45 90/2/45
f 90/2/45 92/4/46 146/6/46
f 147/6/47 146/5/46 92/2/46
f 92/2/46 94/4/47 147/6/47
f 148/6/48 147/5/47 94/2/47
f 94/2/47 96/4/48 148/6/48
f 149/6/49 148/5/48 96/2/48
f 96/2/48 98/4/49 149/6/49
f 150/6/50 149/5/49 98/2/49
f 98/2/49 100/4/50 150/6/50
f 101/6/1 150/5/50 100/2/50
f 100/2/50 2/4/1 101/6/1

